<svg width="39" height="39" viewBox="0 0 39 39" fill="none" xmlns="http://www.w3.org/2000/svg">
<g clip-path="url(#clip0_50826_387)">
<path d="M19.4895 0.361084C15.7042 0.361084 12.0039 1.48356 8.85649 3.58657C5.70911 5.68958 3.25603 8.67866 1.80746 12.1758C0.358879 15.673 -0.0201353 19.5212 0.718343 23.2338C1.45682 26.9464 3.27962 30.3566 5.95625 33.0332C8.63287 35.7098 12.0431 37.5326 15.7557 38.2711C19.4683 39.0096 23.3164 38.6306 26.8136 37.182C30.3108 35.7334 33.2999 33.2803 35.4029 30.133C37.5059 26.9856 38.6284 23.2853 38.6284 19.5C38.6286 16.9866 38.1337 14.4977 37.1719 12.1756C36.2102 9.85346 34.8004 7.74352 33.0232 5.96627C31.2459 4.18902 29.136 2.77927 26.8139 1.81752C24.4917 0.855775 22.0029 0.360875 19.4895 0.361084ZM25.5747 29.3612C25.5031 29.5398 25.3941 29.7011 25.255 29.8341C25.116 29.9672 24.9501 30.069 24.7685 30.1327C24.5869 30.1964 24.3938 30.2206 24.2021 30.2035C24.0104 30.1865 23.8245 30.1287 23.657 30.034L18.4614 25.9968L15.1268 29.0732C15.0494 29.1304 14.9589 29.1672 14.8636 29.1802C14.7683 29.1932 14.6712 29.1821 14.5814 29.1478L15.2206 23.4282L15.2411 23.4444L15.2541 23.3315C15.2541 23.3315 24.6035 14.8195 24.9843 14.4568C25.3699 14.0951 25.2427 14.0166 25.2427 14.0166C25.2647 13.5754 24.5508 14.0166 24.5508 14.0166L12.1631 21.9861L7.00425 20.2292C7.00425 20.2292 6.2119 19.945 6.13726 19.3201C6.05879 18.7 7.03007 18.3631 7.03007 18.3631L27.5412 10.2147C27.5412 10.2147 29.2273 9.46348 29.2273 10.7076L25.5747 29.3612Z" fill="white"/>
</g>
<defs>
<clipPath id="clip0_50826_387">
<rect width="39" height="39" fill="white"/>
</clipPath>
</defs>
</svg>
